<svg width="155" height="164" viewBox="0 0 155 164" fill="none" xmlns="http://www.w3.org/2000/svg">
<mask id="path-1-inside-1_1074_1769" fill="white">
<path d="M43.3463 164C42.9478 164 42.5448 163.989 42.1342 163.968C20.508 162.807 2.7328 132.543 0.306035 106.106C-0.655576 95.6298 -0.12659 67.869 13.6785 65.2493C21.2107 63.8182 29.0525 70.4467 37.6723 85.501C39.0409 87.8918 38.135 90.8965 35.6491 92.2121C33.1601 93.5298 30.0372 92.6564 28.67 90.2673C21.3742 77.5239 16.5589 74.9477 15.6454 74.9477C15.643 74.9477 15.6394 74.9477 15.6369 74.9477C13.0054 75.9555 9.06538 89.1375 10.5425 105.238C11.5624 116.338 15.8311 128.663 21.9645 138.206C28.2168 147.936 35.7766 153.729 42.706 154.102C47.5844 154.359 51.0828 151.554 56.399 146.95C61.9697 142.126 68.9377 136.1 79.5084 136.306C90.5424 136.498 101.232 143.148 111.278 156.076C112.977 158.263 112.512 161.359 110.239 162.992C107.965 164.626 104.745 164.177 103.047 161.992C94.9994 151.638 87.0181 146.32 79.3238 146.187C72.7442 146.099 68.3696 149.883 63.2761 154.293C58.0086 158.855 52.0686 164 43.3463 164Z"/>
</mask>
<path d="M43.3463 164C42.9478 164 42.5448 163.989 42.1342 163.968C20.508 162.807 2.7328 132.543 0.306035 106.106C-0.655576 95.6298 -0.12659 67.869 13.6785 65.2493C21.2107 63.8182 29.0525 70.4467 37.6723 85.501C39.0409 87.8918 38.135 90.8965 35.6491 92.2121C33.1601 93.5298 30.0372 92.6564 28.67 90.2673C21.3742 77.5239 16.5589 74.9477 15.6454 74.9477C15.643 74.9477 15.6394 74.9477 15.6369 74.9477C13.0054 75.9555 9.06538 89.1375 10.5425 105.238C11.5624 116.338 15.8311 128.663 21.9645 138.206C28.2168 147.936 35.7766 153.729 42.706 154.102C47.5844 154.359 51.0828 151.554 56.399 146.95C61.9697 142.126 68.9377 136.1 79.5084 136.306C90.5424 136.498 101.232 143.148 111.278 156.076C112.977 158.263 112.512 161.359 110.239 162.992C107.965 164.626 104.745 164.177 103.047 161.992C94.9994 151.638 87.0181 146.32 79.3238 146.187C72.7442 146.099 68.3696 149.883 63.2761 154.293C58.0086 158.855 52.0686 164 43.3463 164Z" fill="#2877ED"/>
<path d="M43.3463 163.933C43.3463 163.978 43.3463 164.022 43.3463 164.067C42.9409 164.066 42.5355 164.055 42.1307 164.034C34.8876 163.66 28.2495 159.92 22.9856 155.113C9.58642 142.403 2.19805 124.283 0.27765 106.109C-0.333625 98.4664 -0.072967 90.7032 1.35105 83.1494C2.83382 75.9721 5.61925 66.9551 13.676 65.2361C25.6484 64.1535 32.1382 76.6347 37.6775 85.498C39.0757 87.7837 38.0356 91.0499 35.6513 92.2163C33.2909 93.5256 29.9774 92.6527 28.6669 90.269C25.1678 84.5625 21.7756 78.0323 15.6454 74.949C15.6426 74.949 15.6398 74.949 15.6369 74.949C9.51198 83.4002 9.95362 94.9609 10.5356 105.162C10.5379 105.187 10.5402 105.212 10.5425 105.238C11.7085 116.913 15.6975 128.293 21.9658 138.205C26.8087 145.549 33.4537 153.24 42.7062 154.097C48.2296 154.46 52.4393 150.252 56.394 146.944C62.7388 141.162 70.5954 135.914 79.5087 136.293C92.7762 136.514 103.529 146.062 111.299 156.06C113.009 158.125 112.472 161.527 110.256 163.016C108.077 164.643 104.663 164.197 103.022 162.011C97.066 154.51 89.4247 146.609 79.323 146.231C72.977 145.992 67.8443 150.361 63.3116 154.334C63.3095 154.336 63.3074 154.338 63.3053 154.34C57.7612 159.314 51.1457 164.221 43.3463 164.067C43.3463 164.022 43.3463 163.978 43.3463 163.933C51.095 164.096 57.6831 159.228 63.2344 154.258C63.2365 154.256 63.2386 154.254 63.2407 154.252C67.7744 150.287 72.9395 145.895 79.3244 146.142C89.4805 146.535 97.1165 154.462 103.073 161.972C104.691 164.132 108.066 164.577 110.222 162.969C112.415 161.498 112.948 158.137 111.258 156.092C103.499 146.093 92.7616 136.548 79.5081 136.32C70.6047 135.937 62.7515 141.176 56.4041 146.956C52.4483 150.262 48.2347 154.471 42.7057 154.107C33.4472 153.246 26.8054 145.552 21.9632 138.207C15.6964 128.293 11.7085 116.913 10.5425 105.238C10.5402 105.212 10.5379 105.187 10.5356 105.162C9.95413 94.9604 9.5094 83.4019 15.6365 74.9465C15.6398 74.9464 15.6426 74.9464 15.6454 74.9464C21.7799 78.0301 25.1717 84.5594 28.673 90.2655C29.9823 92.6454 33.2912 93.5157 35.6469 92.2079C38.0265 91.0428 39.0626 87.7835 37.667 85.504C32.1276 76.6422 25.6218 64.1715 13.681 65.2625C5.64819 66.9788 2.86733 75.9824 1.39084 83.1572C-0.0273461 90.7065 -0.282346 98.4682 0.33442 106.104C2.26581 124.261 9.67277 142.365 23.058 155.033C28.3155 159.824 34.935 163.539 42.1377 163.902C42.5402 163.923 42.9433 163.934 43.3463 163.933ZM43.3463 164.067V163.933V164.067Z" fill="black" mask="url(#path-1-inside-1_1074_1769)"/>
<path d="M21.623 45.1523C33.0591 2.61661 39.1218 -0.454207 43.8633 0.0439453C49.0536 0.565771 51.1774 7.59289 52.4473 13.6572C53.6953 19.6206 54.678 28.0018 55.3926 38.6826C60.0221 35.1448 66.3371 33.8452 72.3262 35.7666C75.5645 36.8044 78.3663 38.6654 80.5029 41.1523C85.1449 35.818 92.8468 33.4484 100.072 35.7666C103.217 36.7746 105.95 38.5593 108.062 40.9395C119.75 20.008 124.705 16.5585 129.017 17.9893C133.4 19.4335 135.169 24.7491 131.245 47.6475C130.915 49.5727 129.097 50.8591 127.186 50.5332C125.271 50.2007 123.988 48.3697 124.318 46.4443C126.428 34.1291 126.554 28.4954 126.324 25.9658C124.282 28.0437 120.031 33.592 112.004 48.3857C112.806 51.5819 112.671 54.9279 111.574 58.0928C111.068 59.5522 109.709 60.4677 108.256 60.4678C107.872 60.4678 107.481 60.4031 107.098 60.2686C105.264 59.6242 104.297 57.6056 104.937 55.7607C105.817 53.2248 105.631 50.4776 104.414 48.0244C103.106 45.3887 100.807 43.4304 97.9404 42.5117C92.5288 40.7732 86.4997 43.3781 84.2197 48.2363C85.0645 51.4774 84.9428 54.8786 83.8291 58.0928C83.3222 59.5523 81.9627 60.4678 80.5098 60.4678C80.1259 60.4678 79.7345 60.4031 79.3516 60.2686C77.5188 59.6242 76.5511 57.6058 77.1914 55.7607C78.0706 53.2248 77.8849 50.4776 76.668 48.0244C75.3605 45.3887 73.0612 43.4304 70.1943 42.5117C64.436 40.6617 57.9767 43.731 56.082 49.2002C56.0538 49.2813 56.0207 49.3598 55.9873 49.4375C56.0935 51.8082 56.1914 54.2655 56.2764 56.8086C56.3416 58.7611 54.8201 60.3989 52.8809 60.4648C52.8402 60.4661 52.8004 60.4668 52.7598 60.4668C50.8744 60.4666 49.3139 58.9593 49.25 57.0459C47.9636 18.5213 44.5117 9.5243 43.1123 7.44629C41.44 9.04045 36.7241 16.0705 28.4092 47.001C27.9011 48.8887 25.9662 49.9964 24.0977 49.4932C22.2247 48.9834 21.1164 47.0387 21.623 45.1523Z" fill="#2877ED"/>
<path d="M136.846 65.9697C139.233 64.4896 142.41 65.1505 143.949 67.4434C149.886 76.2951 153.362 86.3261 154.005 96.4551C154.006 96.4723 154.008 96.4896 154.009 96.5068C155.601 121.986 139.104 139.89 134.009 144.771C133.007 145.733 131.693 146.213 130.381 146.213C129.064 146.213 127.746 145.728 126.741 144.759C124.738 142.826 124.744 139.698 126.755 137.772C130.561 134.126 141.866 121.928 143.609 104.495C133.754 108.32 121.084 111.575 106.513 111.575C102.053 111.575 97.4176 111.271 92.6279 110.584C82.4694 109.127 72.6016 106.066 63.2979 101.484C60.7718 100.241 59.7722 97.264 61.0654 94.835C62.3587 92.4054 65.4559 91.4453 67.9795 92.6885C76.289 96.7789 85.092 99.5116 94.1436 100.811C114.398 103.715 131.672 98.9417 143.426 93.8232C142.432 86.4874 139.659 79.28 135.312 72.7998C133.774 70.5066 134.461 67.4488 136.846 65.9697Z" fill="#2877ED"/>
</svg>
