<svg width="42" height="42" viewBox="0 0 42 42" fill="none" xmlns="http://www.w3.org/2000/svg">
<path d="M12.5564 42.001C12.4409 42.001 12.3242 41.9982 12.2052 41.9925C5.94065 41.6878 0.791626 33.7428 0.0886507 26.8028C-0.189904 24.0525 -0.03667 16.7648 3.96233 16.0771C6.1442 15.7014 8.41578 17.4415 10.9127 21.3935C11.3092 22.0211 11.0468 22.8099 10.3267 23.1553C9.60567 23.5012 8.70104 23.272 8.30498 22.6447C6.19159 19.2994 4.79669 18.6231 4.53209 18.6231C4.53138 18.6231 4.53034 18.6231 4.52963 18.6231C3.76733 18.8876 2.62602 22.3482 3.0539 26.5747C3.34935 29.4888 4.58587 32.7244 6.36257 35.2295C8.1737 37.7838 10.3636 39.3047 12.3709 39.4025C13.784 39.47 14.7974 38.7336 16.3374 37.5251C17.9511 36.2588 19.9696 34.6766 23.0316 34.7309C26.2279 34.7812 29.3243 36.527 32.2346 39.9207C32.7266 40.4949 32.5919 41.3077 31.9335 41.7364C31.2747 42.1653 30.3419 42.0475 29.8502 41.4738C27.519 38.7558 25.207 37.3596 22.9781 37.3246C21.0722 37.3015 19.805 38.2951 18.3295 39.4527C16.8037 40.6504 15.083 42.001 12.5564 42.001Z" fill="white"/>
<path d="M30.0626 13.5059C29.8988 13.5059 29.7328 13.4699 29.5783 13.3934C29.0837 13.1489 28.9002 12.585 29.1682 12.1339C33.1649 5.40193 34.7296 4.31599 36.077 4.72122C37.3469 5.1003 37.8594 6.49567 36.7227 12.5072C36.6271 13.0127 36.1004 13.3503 35.5466 13.2647C34.992 13.1774 34.6205 12.6968 34.7162 12.1913C35.3273 8.95831 35.3638 7.47937 35.2972 6.81531C34.6898 7.37543 33.4068 8.89581 30.9585 13.0188C30.7742 13.3292 30.424 13.5059 30.0626 13.5059Z" fill="white"/>
<path d="M13.9888 15.874C13.4425 15.874 12.9904 15.4783 12.9719 14.9759C12.5993 4.86248 11.5994 2.50074 11.1941 1.95522C10.7097 2.3737 9.34353 4.21914 6.93487 12.339C6.78771 12.8346 6.22725 13.1254 5.68596 12.9933C5.14336 12.8594 4.82234 12.3489 4.96917 11.8536C8.2819 0.687221 10.0379 -0.118825 11.4114 0.0119494C12.9151 0.148838 13.5302 1.9936 13.8981 3.58565C14.444 5.94978 14.8172 9.76126 15.0072 14.9138C15.0261 15.4263 14.5856 15.8564 14.0238 15.8737C14.012 15.874 14.0006 15.874 13.9888 15.874Z" fill="white"/>
<path d="M22.0267 15.874C21.9155 15.874 21.8021 15.857 21.6911 15.8217C21.1602 15.6526 20.8798 15.1227 21.0654 14.6383C21.3201 13.9725 21.2663 13.2514 20.9137 12.6074C20.535 11.9155 19.8691 11.4015 19.0386 11.1604C17.3705 10.6746 15.4994 11.4803 14.9505 12.9161C14.7647 13.4002 14.1836 13.6549 13.6536 13.4871C13.1225 13.318 12.8428 12.7881 13.0277 12.3037C13.9461 9.90222 16.9188 8.5938 19.6561 9.38965C21.015 9.78435 22.1088 10.6322 22.7355 11.7769C23.3356 12.8737 23.4253 14.1074 22.9881 15.2507C22.8413 15.6339 22.4476 15.874 22.0267 15.874Z" fill="white"/>
<path d="M30.0627 15.874C29.9514 15.874 29.8383 15.857 29.7274 15.8217C29.1962 15.6526 28.916 15.1227 29.1013 14.6383C29.3563 13.9725 29.3023 13.2514 28.9498 12.6074C28.5709 11.9155 27.9051 11.4015 27.0747 11.1604C25.4063 10.6746 23.5355 11.4803 22.9867 12.9161C22.8009 13.4002 22.2196 13.6549 21.6897 13.4871C21.1587 13.318 20.8788 12.7881 21.0639 12.3037C21.9824 9.90222 24.9553 8.5938 27.6923 9.38965C29.0511 9.78435 30.145 10.6322 30.7718 11.7769C31.3717 12.8737 31.4614 14.1074 31.0241 15.2507C30.8775 15.6339 30.4837 15.874 30.0627 15.874Z" fill="white"/>
<path d="M28.2146 28.2383C26.9228 28.2383 25.58 28.1584 24.1926 27.9779C21.2498 27.5956 18.3913 26.7919 15.6962 25.5892C14.9644 25.2627 14.675 24.4812 15.0496 23.8435C15.4243 23.2056 16.3215 22.9537 17.0526 23.2801C19.4596 24.3539 22.0095 25.0712 24.6315 25.4122C31.0496 26.2464 36.435 24.669 39.8239 23.199C40.5597 22.8795 41.453 23.1412 41.8196 23.7823C42.1859 24.4236 41.8863 25.2023 41.15 25.5214C38.1073 26.8414 33.6108 28.2383 28.2146 28.2383Z" fill="white"/>
<path d="M35.1242 37.332C34.7427 37.332 34.3608 37.2047 34.0697 36.9503C33.4895 36.4428 33.4913 35.6214 34.0738 35.116C35.3263 34.0284 39.3833 30.044 38.9969 24.4386C38.8439 22.2192 37.9987 20.0134 36.5527 18.0595C36.1072 17.4575 36.3059 16.6548 36.9967 16.2665C37.6883 15.8779 38.6087 16.0515 39.0546 16.6535C40.7772 18.9812 41.7847 21.6195 41.9686 24.2831C42.4297 30.972 37.6507 35.6724 36.1749 36.9536C35.8846 37.206 35.5042 37.332 35.1242 37.332Z" fill="white"/>
</svg>
