<svg width="194" height="42" viewBox="0 0 194 42" fill="none" xmlns="http://www.w3.org/2000/svg">
<path d="M12.5564 42.001C12.4409 42.001 12.3242 41.9982 12.2052 41.9925C5.94065 41.6878 0.791626 33.7428 0.0886507 26.8028C-0.189904 24.0525 -0.03667 16.7648 3.96233 16.0771C6.1442 15.7014 8.41578 17.4415 10.9127 21.3935C11.3092 22.0211 11.0468 22.8099 10.3267 23.1553C9.60567 23.5012 8.70104 23.272 8.30498 22.6447C6.19159 19.2994 4.79669 18.6231 4.53209 18.6231C4.53138 18.6231 4.53034 18.6231 4.52963 18.6231C3.76733 18.8876 2.62602 22.3482 3.0539 26.5747C3.34935 29.4888 4.58587 32.7244 6.36257 35.2295C8.1737 37.7838 10.3636 39.3047 12.3709 39.4025C13.784 39.47 14.7974 38.7336 16.3374 37.5251C17.9511 36.2588 19.9696 34.6766 23.0316 34.7309C26.2279 34.7812 29.3243 36.527 32.2346 39.9207C32.7266 40.4949 32.5919 41.3077 31.9335 41.7364C31.2747 42.1653 30.3419 42.0475 29.8502 41.4738C27.519 38.7558 25.207 37.3596 22.9781 37.3246C21.0722 37.3015 19.805 38.2951 18.3295 39.4527C16.8037 40.6504 15.083 42.001 12.5564 42.001Z" fill="white"/>
<path d="M30.0626 13.5059C29.8988 13.5059 29.7328 13.4699 29.5783 13.3934C29.0837 13.1489 28.9002 12.585 29.1682 12.1339C33.1649 5.40193 34.7296 4.31599 36.077 4.72122C37.3469 5.1003 37.8594 6.49567 36.7227 12.5072C36.6271 13.0127 36.1004 13.3503 35.5466 13.2647C34.992 13.1774 34.6205 12.6968 34.7162 12.1913C35.3273 8.95831 35.3638 7.47937 35.2972 6.81531C34.6898 7.37543 33.4068 8.89581 30.9585 13.0188C30.7742 13.3292 30.424 13.5059 30.0626 13.5059Z" fill="white"/>
<path d="M13.9888 15.874C13.4425 15.874 12.9904 15.4783 12.9719 14.9759C12.5993 4.86248 11.5994 2.50074 11.1941 1.95522C10.7097 2.3737 9.34353 4.21914 6.93487 12.339C6.78771 12.8346 6.22725 13.1254 5.68596 12.9933C5.14336 12.8594 4.82234 12.3489 4.96917 11.8536C8.2819 0.687221 10.0379 -0.118825 11.4114 0.0119494C12.9151 0.148838 13.5302 1.9936 13.8981 3.58565C14.444 5.94978 14.8172 9.76126 15.0072 14.9138C15.0261 15.4263 14.5856 15.8564 14.0238 15.8737C14.012 15.874 14.0006 15.874 13.9888 15.874Z" fill="white"/>
<path d="M22.0267 15.874C21.9155 15.874 21.8021 15.857 21.6911 15.8217C21.1602 15.6526 20.8798 15.1227 21.0654 14.6383C21.3201 13.9725 21.2663 13.2514 20.9137 12.6074C20.535 11.9155 19.8691 11.4015 19.0386 11.1604C17.3705 10.6746 15.4994 11.4803 14.9505 12.9161C14.7647 13.4002 14.1836 13.6549 13.6536 13.4871C13.1225 13.318 12.8428 12.7881 13.0277 12.3037C13.9461 9.90222 16.9188 8.5938 19.6561 9.38965C21.015 9.78435 22.1088 10.6322 22.7355 11.7769C23.3356 12.8737 23.4253 14.1074 22.9881 15.2507C22.8413 15.6339 22.4476 15.874 22.0267 15.874Z" fill="white"/>
<path d="M30.0627 15.874C29.9514 15.874 29.8383 15.857 29.7274 15.8217C29.1962 15.6526 28.916 15.1227 29.1013 14.6383C29.3563 13.9725 29.3023 13.2514 28.9498 12.6074C28.5709 11.9155 27.9051 11.4015 27.0747 11.1604C25.4063 10.6746 23.5355 11.4803 22.9867 12.9161C22.8009 13.4002 22.2196 13.6549 21.6897 13.4871C21.1587 13.318 20.8788 12.7881 21.0639 12.3037C21.9824 9.90222 24.9553 8.5938 27.6923 9.38965C29.0511 9.78435 30.145 10.6322 30.7718 11.7769C31.3717 12.8737 31.4614 14.1074 31.0241 15.2507C30.8775 15.6339 30.4837 15.874 30.0627 15.874Z" fill="white"/>
<path d="M28.2146 28.2383C26.9228 28.2383 25.58 28.1584 24.1926 27.9779C21.2498 27.5956 18.3913 26.7919 15.6962 25.5892C14.9644 25.2627 14.675 24.4812 15.0496 23.8435C15.4243 23.2056 16.3215 22.9537 17.0526 23.2801C19.4596 24.3539 22.0095 25.0712 24.6315 25.4122C31.0496 26.2464 36.435 24.669 39.8239 23.199C40.5597 22.8795 41.453 23.1412 41.8196 23.7823C42.1859 24.4236 41.8863 25.2023 41.15 25.5214C38.1073 26.8414 33.6108 28.2383 28.2146 28.2383Z" fill="white"/>
<path d="M35.1242 37.332C34.7427 37.332 34.3608 37.2047 34.0697 36.9503C33.4895 36.4428 33.4913 35.6214 34.0738 35.116C35.3263 34.0284 39.3833 30.044 38.9969 24.4386C38.8439 22.2192 37.9987 20.0134 36.5527 18.0595C36.1072 17.4575 36.3059 16.6548 36.9967 16.2665C37.6883 15.8779 38.6087 16.0515 39.0546 16.6535C40.7772 18.9812 41.7847 21.6195 41.9686 24.2831C42.4297 30.972 37.6507 35.6724 36.1749 36.9536C35.8846 37.206 35.5042 37.332 35.1242 37.332Z" fill="white"/>
<path d="M64.848 32.82C63.376 32.82 62.1173 32.6387 61.072 32.276C60.0267 31.9133 59.152 31.444 58.448 30.868C57.7653 30.292 57.2213 29.684 56.816 29.044C56.4107 28.3827 56.1013 27.764 55.888 27.188C55.696 26.612 55.568 26.1427 55.504 25.78C55.44 25.4173 55.408 25.236 55.408 25.236H59.824C59.824 25.236 59.8453 25.364 59.888 25.62C59.952 25.876 60.08 26.2067 60.272 26.612C60.464 26.996 60.7413 27.38 61.104 27.764C61.488 28.148 61.9893 28.4787 62.608 28.756C63.248 29.012 64.0373 29.14 64.976 29.14C66.4267 29.14 67.5253 28.82 68.272 28.18C69.04 27.5187 69.424 26.708 69.424 25.748C69.424 24.9373 69.136 24.2973 68.56 23.828C67.984 23.3373 67.1307 22.9747 66 22.74L62.864 22.068C61.648 21.812 60.5067 21.428 59.44 20.916C58.3947 20.404 57.552 19.7107 56.912 18.836C56.272 17.9613 55.952 16.8413 55.952 15.476C55.952 14.0467 56.304 12.8093 57.008 11.764C57.7333 10.7187 58.7253 9.91867 59.984 9.364C61.2427 8.788 62.7147 8.5 64.4 8.5C66 8.5 67.3227 8.73466 68.368 9.204C69.4133 9.67333 70.2453 10.2493 70.864 10.932C71.504 11.6147 71.9733 12.2973 72.272 12.98C72.5707 13.6627 72.7627 14.2387 72.848 14.708C72.9547 15.1773 73.008 15.412 73.008 15.412H68.752C68.752 15.412 68.7093 15.252 68.624 14.932C68.5387 14.5907 68.3467 14.2067 68.048 13.78C67.7493 13.3533 67.3013 12.98 66.704 12.66C66.1067 12.3187 65.3067 12.148 64.304 12.148C62.8747 12.148 61.8293 12.468 61.168 13.108C60.528 13.748 60.208 14.4413 60.208 15.188C60.208 15.956 60.5067 16.5533 61.104 16.98C61.7013 17.4067 62.5013 17.7373 63.504 17.972L66.864 18.676C68.1227 18.9533 69.2747 19.3693 70.32 19.924C71.3653 20.4787 72.1973 21.2147 72.816 22.132C73.4347 23.028 73.744 24.148 73.744 25.492C73.744 26.8573 73.4027 28.0947 72.72 29.204C72.0373 30.3133 71.0347 31.1987 69.712 31.86C68.3893 32.5 66.768 32.82 64.848 32.82ZM79.136 12.916C78.3893 12.916 77.7707 12.6707 77.28 12.18C76.8107 11.6893 76.576 11.1027 76.576 10.42C76.576 9.73733 76.8107 9.15066 77.28 8.66C77.7707 8.16933 78.3893 7.924 79.136 7.924C79.8827 7.924 80.5013 8.16933 80.992 8.66C81.4827 9.15066 81.728 9.73733 81.728 10.42C81.728 11.1027 81.4827 11.6893 80.992 12.18C80.5013 12.6707 79.8827 12.916 79.136 12.916ZM77.024 32.5V15.54H81.28V32.5H77.024ZM85.613 32.5L85.645 8.18H89.869V32.5H85.613ZM101.827 32.82C100.376 32.82 99.1177 32.5747 98.051 32.084C97.0057 31.572 96.131 30.9 95.427 30.068C94.7443 29.2147 94.2323 28.2653 93.891 27.22C93.5497 26.1747 93.379 25.108 93.379 24.02C93.379 22.932 93.539 21.876 93.859 20.852C94.2003 19.8067 94.7017 18.8573 95.363 18.004C96.0457 17.1507 96.9097 16.4787 97.955 15.988C99.0003 15.476 100.238 15.22 101.667 15.22C103.203 15.22 104.558 15.5613 105.731 16.244C106.904 16.9267 107.822 17.9293 108.483 19.252C109.144 20.5533 109.475 22.1747 109.475 24.116V25.204H97.667C97.731 26.356 98.1257 27.3587 98.851 28.212C99.5763 29.044 100.568 29.46 101.827 29.46C102.552 29.46 103.15 29.3427 103.619 29.108C104.088 28.8733 104.451 28.6067 104.707 28.308C104.963 27.988 105.144 27.7213 105.251 27.508C105.358 27.2733 105.411 27.156 105.411 27.156H109.347C109.347 27.156 109.294 27.348 109.187 27.732C109.08 28.0947 108.878 28.564 108.579 29.14C108.302 29.6947 107.886 30.26 107.331 30.836C106.776 31.3907 106.051 31.86 105.155 32.244C104.259 32.628 103.15 32.82 101.827 32.82ZM97.667 22.42H105.379C105.315 21.0973 104.92 20.116 104.195 19.476C103.47 18.836 102.616 18.516 101.635 18.516C100.547 18.516 99.6403 18.868 98.915 19.572C98.1897 20.2547 97.7737 21.204 97.667 22.42ZM112.665 32.5V15.54H116.921V17.972H117.113C117.283 17.6733 117.55 17.3107 117.913 16.884C118.275 16.436 118.777 16.052 119.417 15.732C120.057 15.3907 120.867 15.22 121.849 15.22C123.15 15.22 124.217 15.5187 125.049 16.116C125.902 16.692 126.531 17.46 126.937 18.42C127.363 19.38 127.576 20.4147 127.576 21.524V32.5H123.321V22.1C123.321 21.1827 123.065 20.3933 122.553 19.732C122.041 19.0707 121.273 18.74 120.249 18.74C119.459 18.74 118.819 18.9427 118.329 19.348C117.838 19.732 117.475 20.2333 117.241 20.852C117.027 21.4707 116.921 22.1213 116.921 22.804V32.5H112.665ZM136.037 32.5V12.596H128.741V8.82H147.685V12.596H140.389V32.5H136.037ZM154.706 15.22C155.794 15.22 156.69 15.4013 157.394 15.764C158.098 16.1053 158.653 16.4893 159.058 16.916C159.464 17.3213 159.741 17.652 159.89 17.908H160.082V15.54H164.338V32.5H160.082V30.132H159.89C159.741 30.388 159.464 30.7293 159.058 31.156C158.653 31.5827 158.098 31.9667 157.394 32.308C156.69 32.6493 155.794 32.82 154.706 32.82C153.448 32.82 152.349 32.5747 151.41 32.084C150.472 31.572 149.682 30.9 149.042 30.068C148.424 29.2147 147.954 28.2653 147.634 27.22C147.336 26.1747 147.186 25.108 147.186 24.02C147.186 22.932 147.336 21.8653 147.634 20.82C147.954 19.7747 148.424 18.836 149.042 18.004C149.682 17.1507 150.472 16.4787 151.41 15.988C152.349 15.476 153.448 15.22 154.706 15.22ZM155.826 18.708C154.866 18.708 154.056 18.9747 153.394 19.508C152.754 20.02 152.274 20.6813 151.954 21.492C151.634 22.3027 151.474 23.1453 151.474 24.02C151.474 24.8947 151.634 25.7373 151.954 26.548C152.274 27.3587 152.754 28.0307 153.394 28.564C154.056 29.076 154.866 29.332 155.826 29.332C156.786 29.332 157.586 29.076 158.226 28.564C158.866 28.0307 159.346 27.3587 159.666 26.548C159.986 25.7373 160.146 24.8947 160.146 24.02C160.146 23.1453 159.986 22.3027 159.666 21.492C159.346 20.6813 158.866 20.02 158.226 19.508C157.586 18.9747 156.786 18.708 155.826 18.708ZM168.292 32.5L168.324 8.18H172.548V32.5H168.292ZM176.759 32.5V8.18H181.015V22.26L186.999 15.54H192.023L184.983 23.284L192.247 32.5H187.159L181.015 24.692V32.5H176.759Z" fill="white"/>
</svg>
